<svg xmlns="http://www.w3.org/2000/svg" height="40" width="40" viewBox="0 0 192.43 155.32"><defs><style>.cls-1{fill:#ff64a3;}.cls-2{fill:#662d91;}.cls-3{fill:#05053a;}</style></defs><g id="Capa_1" data-name="Capa 1"><path class="cls-1" d="M47.08,155.24H4.52A4.37,4.37,0,0,1,1,153.7a4.51,4.51,0,0,1-.89-4L28,18.16,30.69,5.53a6.46,6.46,0,0,1,2.32-4A6.54,6.54,0,0,1,37.31,0H83.16"/><path class="cls-2" d="M71.25,155.24H28.6a4.4,4.4,0,0,1-3.53-1.54,4.53,4.53,0,0,1-.88-4L52.12,18.16,54.77,5.53a6.46,6.46,0,0,1,2.32-4A6.53,6.53,0,0,1,61.39,0h40.36"/><path class="cls-3" d="M53,155.32a4.43,4.43,0,0,1-3.55-1.55,4.57,4.57,0,0,1-.89-4L79.15,5.55a6.35,6.35,0,0,1,2.44-4A6.77,6.77,0,0,1,85.8,0H187.87a4.37,4.37,0,0,1,3.66,1.55,4.85,4.85,0,0,1,.78,4L187.65,28a6.34,6.34,0,0,1-2.44,4,7,7,0,0,1-4.44,1.55H112.43l-6.88,32.62h63.91a4.26,4.26,0,0,1,3.66,1.67,5.1,5.1,0,0,1,.77,4.1L169,94.08A5.73,5.73,0,0,1,166.79,98a6.76,6.76,0,0,1-4.43,1.67H98.45L87.58,149.77a6.55,6.55,0,0,1-2.33,4,6.65,6.65,0,0,1-4.33,1.55Z"/></g></svg>