<svg xmlns="http://www.w3.org/2000/svg" width="140" height="140" viewBox="0 0 868.18 154.72"><defs><style>.cls-1{fill:#ff64a3;}.cls-2{fill:#662d91;}.cls-3{fill:#05053a;}</style></defs><g id="Capa_1" data-name="Capa 1"><path class="cls-1" d="M46.9,154.65H4.5A4.37,4.37,0,0,1,1,153.11a4.5,4.5,0,0,1-.88-4L27.93,18.09,30.58,5.5a6.41,6.41,0,0,1,2.3-3.95A6.56,6.56,0,0,1,37.17,0H82.84"/><path class="cls-2" d="M70.92,154.72H28.43a4.39,4.39,0,0,1-3.51-1.53,4.52,4.52,0,0,1-.88-4L51.86,18.16,54.51,5.58a6.39,6.39,0,0,1,2.3-3.95A6.56,6.56,0,0,1,61.1.08h40.21"/><path class="cls-3" d="M52.75,154.72a4.42,4.42,0,0,1-3.54-1.54,4.55,4.55,0,0,1-.88-4L78.83,5.53a6.29,6.29,0,0,1,2.43-4A6.72,6.72,0,0,1,85.46,0H187.13a4.37,4.37,0,0,1,3.65,1.55,4.76,4.76,0,0,1,.77,4l-4.64,22.32a6.33,6.33,0,0,1-2.43,4,7,7,0,0,1-4.42,1.55H112l-6.85,32.49h63.66a4.21,4.21,0,0,1,3.64,1.66,5.09,5.09,0,0,1,.78,4.08l-4.87,22.11a5.68,5.68,0,0,1-2.21,3.87,6.74,6.74,0,0,1-4.41,1.65H98.06l-10.83,50a6.54,6.54,0,0,1-2.32,4,6.62,6.62,0,0,1-4.31,1.54Z"/><path class="cls-3" d="M180.51,154.72a4.42,4.42,0,0,1-3.54-1.54,4.55,4.55,0,0,1-.88-4L206.59,5.53a6.33,6.33,0,0,1,2.43-4A6.77,6.77,0,0,1,213.22,0H242.4a4.67,4.67,0,0,1,3.75,1.55,4.56,4.56,0,0,1,.89,4L222.28,121.35H289a4.24,4.24,0,0,1,3.65,1.65,5.12,5.12,0,0,1,.78,4.09l-4.65,22.11a6.49,6.49,0,0,1-2.32,4,6.59,6.59,0,0,1-4.31,1.54Z"/><path class="cls-3" d="M307.23,154.43a4.42,4.42,0,0,1-3.53-1.54,4.56,4.56,0,0,1-.88-4L333.27,5.52a6.34,6.34,0,0,1,2.42-4A6.79,6.79,0,0,1,339.88,0h103a4.37,4.37,0,0,1,3.64,1.54,4.77,4.77,0,0,1,.77,4l-4.19,20.73a6.32,6.32,0,0,1-2.42,4,7,7,0,0,1-4.42,1.54H365.92l-6.4,29.78h65.3a4.5,4.5,0,0,1,3.75,1.66,4.83,4.83,0,0,1,.88,4.08l-4.19,19.19A6.84,6.84,0,0,1,423,90.34,6.32,6.32,0,0,1,418.64,92H353.12l-6.4,30.66h71.92a4.38,4.38,0,0,1,3.65,1.55,4.81,4.81,0,0,1,.77,4l-4.42,20.74a6.45,6.45,0,0,1-2.31,4,6.59,6.59,0,0,1-4.31,1.54Z"/><path class="cls-3" d="M432.94,154.72a3.77,3.77,0,0,1-3.86-2.54,4.31,4.31,0,0,1,1-4.75l66.31-72.5-34-67.86a4.62,4.62,0,0,1,.44-4.75A5.2,5.2,0,0,1,467.43,0h28.51q4,0,5.52,1.77a11.3,11.3,0,0,1,2,2.87L524,46.2,560.7,4.64c.74-.73,1.8-1.69,3.21-2.87A9.17,9.17,0,0,1,570,0h31.38a3.61,3.61,0,0,1,3.76,2.54,4.72,4.72,0,0,1-.89,4.75l-63,72.95,33.82,67.63a4.42,4.42,0,0,1-.33,4.53,5.16,5.16,0,0,1-4.75,2.32h-28.3c-2.65,0-4.49-.58-5.52-1.77a14,14,0,0,1-2-2.65l-20.56-40.45L476.27,150.3c-.59.59-1.55,1.48-2.88,2.65s-3.39,1.77-6.18,1.77Z"/><path class="cls-3" d="M595.89,154.72a4.44,4.44,0,0,1-3.54-1.54,4.55,4.55,0,0,1-.88-4L622,5.53a6.37,6.37,0,0,1,2.43-4A6.77,6.77,0,0,1,628.6,0H731.82a4.37,4.37,0,0,1,3.65,1.55,4.76,4.76,0,0,1,.77,4L732.05,26.3a6.32,6.32,0,0,1-2.44,4,7,7,0,0,1-4.42,1.55H654.68l-6.41,29.84H713.7a4.54,4.54,0,0,1,3.76,1.66,4.83,4.83,0,0,1,.88,4.08l-4.2,19.23a6.85,6.85,0,0,1-2.32,3.87,6.3,6.3,0,0,1-4.31,1.66H641.87l-6.41,30.72h72a4.37,4.37,0,0,1,3.65,1.55,4.8,4.8,0,0,1,.77,4l-4.42,20.78a6.7,6.7,0,0,1-6.63,5.52Z"/><path class="cls-3" d="M783.89,154.72a83.43,83.43,0,0,1-25.14-3.65,51,51,0,0,1-19.56-11,40.1,40.1,0,0,1-11.28-18.27q-3.33-10.95-1-25.57,1.72-9.24,3.76-18.48t4.19-18.69q7.1-29,25.58-44.06T810.32,0a80.35,80.35,0,0,1,25,3.76A51.9,51.9,0,0,1,854.91,15,41.14,41.14,0,0,1,866.3,33.52q3.33,11,.75,25.58-1.5,9.45-3.54,18.69t-4.19,18.48q-7.3,29.45-25.79,44T783.89,154.72Zm2.79-30.94a32.23,32.23,0,0,0,20.42-6.88Q815.91,110,819.56,95q2.37-9.45,4.19-17.83t3.33-17.41q2.79-15-2.58-21.92t-17-6.88a31.83,31.83,0,0,0-20.31,6.88q-8.7,6.88-12.36,21.92-2.36,9-4.19,17.41T767.13,95q-2.58,15,2.58,21.92T786.68,123.78Z"/></g></svg>