<svg id="Capa_1" data-name="Capa 1" xmlns="http://www.w3.org/2000/svg" viewBox="0 0 140 24.97"><defs><style>.cls-1{fill:#ff64a3;}.cls-2{fill:#662d91;}.cls-3{fill:#05053a;}</style></defs><g id="Capa_1-2" data-name="Capa 1"><path class="cls-1" d="M7.56,24.93H.73a.76.76,0,0,1-.57-.25A.72.72,0,0,1,0,24L4.5,2.9l.43-2A1,1,0,0,1,5.3.24,1,1,0,0,1,6,0h7.37" transform="translate(0 0.02)"/><path class="cls-2" d="M11.44,24.94H4.58a.7.7,0,0,1-.7-.89L8.36,2.92l.43-2A1,1,0,0,1,9.16.25,1.08,1.08,0,0,1,9.85,0h6.49" transform="translate(0 0.02)"/><path class="cls-3" d="M8.51,24.94a.72.72,0,0,1-.57-.25A.76.76,0,0,1,7.79,24L12.71.88A1.05,1.05,0,0,1,13.1.23,1.1,1.1,0,0,1,13.78,0h16.4a.66.66,0,0,1,.58.25.74.74,0,0,1,.13.64l-.75,3.6a1,1,0,0,1-.39.65,1.14,1.14,0,0,1-.71.25h-11L17,10.62H27.22a.67.67,0,0,1,.59.26.81.81,0,0,1,.12.66l-.78,3.57a.93.93,0,0,1-.36.62,1.08,1.08,0,0,1-.71.27H15.81l-1.74,8.06a1.09,1.09,0,0,1-.38.64A1,1,0,0,1,13,25Z" transform="translate(0 0.02)"/><path class="cls-3" d="M29.11,24.94a.71.71,0,0,1-.71-.9L33.31.88a1.06,1.06,0,0,1,.4-.65A1.1,1.1,0,0,1,34.38,0h4.71a.72.72,0,0,1,.6.25.74.74,0,0,1,.15.64l-4,18.68H46.6a.67.67,0,0,1,.59.26.81.81,0,0,1,.13.66l-.75,3.57a1,1,0,0,1-.38.64,1.08,1.08,0,0,1-.69.25Z" transform="translate(0 0.02)"/><path class="cls-3" d="M49.54,24.89a.72.72,0,0,1-.57-.25.74.74,0,0,1-.14-.64L53.74.88a1.05,1.05,0,0,1,.39-.65A1.1,1.1,0,0,1,54.81,0H71.42A.66.66,0,0,1,72,.24a.74.74,0,0,1,.13.64l-.68,3.34a1,1,0,0,1-.39.65,1.14,1.14,0,0,1-.71.25H59l-1,4.8H68.51a.74.74,0,0,1,.6.27.76.76,0,0,1,.14.65l-.67,3.1a1.11,1.11,0,0,1-.37.62,1,1,0,0,1-.7.26H56.94l-1,4.95h11.6a.69.69,0,0,1,.59.25.76.76,0,0,1,.12.64L67.51,24a1,1,0,0,1-.37.64,1.13,1.13,0,0,1-.7.25Z" transform="translate(0 0.02)"/><path class="cls-3" d="M69.81,24.94a.62.62,0,0,1-.62-.41.71.71,0,0,1,.16-.77l10.7-11.69L74.56,1.13a.76.76,0,0,1,.07-.77A.83.83,0,0,1,75.38,0H80a1.13,1.13,0,0,1,.89.28,2.21,2.21,0,0,1,.33.47l3.31,6.7L90.42.74c.12-.12.29-.28.51-.47a1.47,1.47,0,0,1,1-.28H97a.56.56,0,0,1,.6.41.75.75,0,0,1-.14.76L87.28,12.93l5.45,10.9a.71.71,0,0,1,0,.73.84.84,0,0,1-.77.38H87.35a1.14,1.14,0,0,1-.89-.29,2.29,2.29,0,0,1-.32-.43L82.82,17.7l-6,6.52c-.09.1-.25.24-.46.43a1.49,1.49,0,0,1-1,.29Z" transform="translate(0 0.02)"/><path class="cls-3" d="M96.09,24.94a.71.71,0,0,1-.71-.9L100.3.88A1.09,1.09,0,0,1,101.37,0H118a.68.68,0,0,1,.59.25.73.73,0,0,1,.12.64l-.67,3.35a1,1,0,0,1-.4.64,1.08,1.08,0,0,1-.71.25H105.57l-1,4.82h10.55a.72.72,0,0,1,.61.26.82.82,0,0,1,.14.66l-.68,3.1a1.1,1.1,0,0,1-.37.63,1,1,0,0,1-.7.26H103.51l-1,5h11.61a.67.67,0,0,1,.59.25.77.77,0,0,1,.13.64l-.72,3.35a1.07,1.07,0,0,1-1.07.89Z" transform="translate(0 0.02)"/><path class="cls-3" d="M126.41,24.94a13.62,13.62,0,0,1-4.06-.59,8.23,8.23,0,0,1-3.15-1.78,6.45,6.45,0,0,1-1.82-2.94,9.19,9.19,0,0,1-.16-4.13c.18-1,.39-2,.61-3s.44-2,.67-3a12.67,12.67,0,0,1,4.13-7.1,12.26,12.26,0,0,1,8-2.42,13.08,13.08,0,0,1,4,.6,8.49,8.49,0,0,1,3.16,1.82,6.67,6.67,0,0,1,1.84,3,9,9,0,0,1,.12,4.13c-.16,1-.35,2-.57,3s-.45,2-.68,3a12.47,12.47,0,0,1-4.16,7.1A12.54,12.54,0,0,1,126.41,24.94Zm.45-5a5.23,5.23,0,0,0,3.29-1.11,6.13,6.13,0,0,0,2-3.53c.25-1,.48-2,.68-2.88s.37-1.84.53-2.81A4.44,4.44,0,0,0,133,6.09,3.27,3.27,0,0,0,130.21,5a5.12,5.12,0,0,0-3.27,1.11,6.16,6.16,0,0,0-2,3.53c-.26,1-.48,1.91-.68,2.81s-.38,1.86-.57,2.88a4.65,4.65,0,0,0,.42,3.53A3.19,3.19,0,0,0,126.86,20Z" transform="translate(0 0.02)"/></g></svg>